<svg width="40" height="40" viewBox="0 0 40 40" fill="none" xmlns="http://www.w3.org/2000/svg">
<path fill-rule="evenodd" clip-rule="evenodd" d="M15.9992 0.785156C7.38442 0.785156 0.400024 7.76996 0.400024 16.386C0.400024 23.2784 4.86883 29.1256 11.0684 31.1872C11.8492 31.3316 12.1332 30.8512 12.1332 30.4364C12.1332 30.0668 12.1196 29.0864 12.1128 27.7832C7.77323 28.7268 6.85762 25.6916 6.85762 25.6916C6.14802 23.8896 5.12522 23.4104 5.12522 23.4104C3.70882 22.4432 5.23282 22.462 5.23282 22.462C6.79842 22.5728 7.62242 24.0692 7.62242 24.0692C9.01362 26.4532 11.274 25.7632 12.1624 25.3664C12.3036 24.3564 12.7076 23.6704 13.1528 23.2796C9.68922 22.886 6.04762 21.5476 6.04762 15.57C6.04762 13.8664 6.65522 12.4736 7.65282 11.3828C7.49322 10.99 6.95682 9.40396 7.80602 7.25516C7.80602 7.25516 9.11562 6.83596 12.0964 8.85556C13.34 8.50796 14.6748 8.33436 16.0016 8.32916C17.3264 8.33476 18.6616 8.50796 19.9068 8.85556C22.8856 6.83596 24.1932 7.25516 24.1932 7.25516C25.0444 9.40396 24.5084 10.99 24.3484 11.3828C25.3484 12.4736 25.9516 13.8664 25.9516 15.57C25.9516 21.5616 22.3048 22.8816 18.8296 23.2664C19.3888 23.7484 19.888 24.7024 19.888 26.158C19.888 28.2424 19.8692 29.9244 19.8692 30.436C19.8692 30.854 20.1496 31.34 20.9416 31.1852C27.1344 29.1192 31.6 23.2764 31.6 16.386C31.6 7.76996 24.6156 0.785156 15.9992 0.785156V0.785156Z" fill="#93C8AA"/>
</svg>
