<svg width="40" height="40" viewBox="0 0 40 40" fill="none" xmlns="http://www.w3.org/2000/svg">
<path d="M18.076 28.1566C17.7976 28.5502 17.534 28.7442 17.282 28.7442C17.114 28.7442 17.0184 28.6458 16.988 28.4506C16.976 28.4102 16.976 28.257 16.976 27.9626V22.8586H15.7208V28.3402C15.7208 28.8302 15.7624 29.1606 15.8316 29.3706C15.9568 29.7218 16.236 29.8862 16.6408 29.8862C17.1024 29.8862 17.5768 29.6074 18.0756 29.0346V29.791H19.3328V22.859H18.076V28.1566V28.1566ZM11.1588 21.797H12.6364V29.791H14.0332V21.797H15.538V20.4874H11.1588V21.797ZM19.7124 15.7362C20.1216 15.7362 20.3176 15.4122 20.3176 14.7638V11.8166C20.3176 11.169 20.1216 10.8462 19.7124 10.8462C19.3028 10.8462 19.1064 11.169 19.1064 11.8166V14.7638C19.1068 15.4118 19.3028 15.7362 19.7124 15.7362ZM22.9736 22.7742C22.512 22.7742 22.0816 23.027 21.6764 23.5262V20.4874H20.42V29.791H21.6764V29.1182C22.0956 29.6378 22.5272 29.8862 22.9736 29.8862C23.474 29.8862 23.81 29.623 23.978 29.1074C24.0616 28.8134 24.1044 28.3518 24.1044 27.7106V24.9502C24.1044 24.2942 24.0616 23.8358 23.978 23.557C23.8096 23.0374 23.474 22.7742 22.9736 22.7742ZM22.8484 27.809C22.8484 28.435 22.664 28.7438 22.302 28.7438C22.0956 28.7438 21.886 28.6454 21.676 28.4354V24.2098C21.886 24.003 22.0952 23.9046 22.302 23.9046C22.6644 23.9046 22.8484 24.2254 22.8484 24.8506V27.809ZM26.974 22.7742C26.3332 22.7742 25.8324 23.0106 25.47 23.4854C25.2028 23.8354 25.0816 24.377 25.0816 25.1174V27.5462C25.0816 28.2822 25.2184 28.8298 25.4852 29.1758C25.848 29.649 26.348 29.8858 27.0056 29.8858C27.6616 29.8858 28.1764 29.6374 28.5244 29.135C28.6779 28.9093 28.7781 28.6518 28.8176 28.3818C28.8288 28.2558 28.8444 27.9766 28.8444 27.5726V27.3886H27.5624C27.5624 27.8926 27.5468 28.1714 27.5352 28.2398C27.4636 28.5754 27.2828 28.7434 26.974 28.7434C26.5428 28.7434 26.3332 28.4234 26.3332 27.7818V26.553H28.8448V25.117C28.8448 24.3762 28.7188 23.835 28.456 23.485C28.1044 23.0102 27.6044 22.7742 26.974 22.7742V22.7742ZM27.5888 25.5078H26.3332V24.8666C26.3332 24.2258 26.5428 23.905 26.9628 23.905C27.3784 23.905 27.5888 24.2258 27.5888 24.8666V25.5078V25.5078Z" fill="#93C8AA"/>
<path d="M31.6 5.6001H8.39998C6.85998 5.6001 5.59998 6.8601 5.59998 8.4001V31.6001C5.59998 33.1401 6.85998 34.4001 8.39998 34.4001H31.6C33.14 34.4001 34.4 33.1401 34.4 31.6001V8.4001C34.4 6.8601 33.14 5.6001 31.6 5.6001ZM22.632 9.7881H23.8972V14.9449C23.8972 15.2433 23.8972 15.3981 23.9128 15.4389C23.9408 15.6357 24.04 15.7361 24.2104 15.7361C24.464 15.7361 24.7308 15.5393 25.012 15.1417V9.7881H26.2816V16.7921H25.012V16.0281C24.5068 16.6077 24.0248 16.8893 23.562 16.8893C23.1532 16.8893 22.8712 16.7233 22.7444 16.3681C22.6744 16.1565 22.632 15.8209 22.632 15.3265V9.7881V9.7881ZM17.8372 12.0713C17.8372 11.3229 17.9648 10.7753 18.2348 10.4213C18.586 9.9429 19.0804 9.7033 19.7124 9.7033C20.3484 9.7033 20.842 9.9429 21.1936 10.4213C21.4592 10.7753 21.5876 11.3229 21.5876 12.0713V14.5253C21.5876 15.2693 21.4596 15.8213 21.1936 16.1729C20.842 16.6501 20.3488 16.8897 19.7124 16.8897C19.08 16.8897 18.5856 16.6501 18.2348 16.1729C17.9648 15.8213 17.8372 15.2693 17.8372 14.5253V12.0713ZM14.4428 7.3929L15.4424 11.0837L16.402 7.3929H17.8252L16.1324 12.9857V16.7921H14.7244V12.9857C14.5972 12.3105 14.3156 11.3225 13.8644 10.0117C13.5676 9.1397 13.2584 8.2637 12.962 7.3929H14.4428ZM30.0292 30.2073C29.7756 31.3125 28.8708 32.1277 27.7828 32.2489C25.2052 32.5369 22.5968 32.5385 20 32.5369C17.4028 32.5385 14.7944 32.5369 12.2172 32.2489C11.1288 32.1273 10.2256 31.3121 9.97158 30.2073C9.60958 28.6329 9.60958 26.9145 9.60958 25.2945C9.60958 23.6729 9.61358 21.9557 9.97598 20.3809C10.2296 19.2761 11.1332 18.4613 12.2216 18.3397C14.7988 18.0509 17.4072 18.0501 20.0044 18.0509C22.6012 18.0501 25.2096 18.0509 27.7872 18.3397C28.8748 18.4613 29.7792 19.2761 30.0332 20.3809C30.3952 21.9561 30.3932 23.6729 30.3932 25.2945C30.3936 26.9145 30.3916 28.6329 30.0292 30.2073V30.2073Z" fill="#93C8AA"/>
</svg>
